<!DOCTYPE svg PUBLIC "-//W3C//DTD SVG 1.1//EN" "http://www.w3.org/Graphics/SVG/1.1/DTD/svg11.dtd">
<!-- Uploaded to: SVG Repo, www.svgrepo.com, Transformed by: SVG Repo Mixer Tools -->
<svg height="800px" width="800px" version="1.1" id="Layer_1" xmlns="http://www.w3.org/2000/svg" xmlns:xlink="http://www.w3.org/1999/xlink" viewBox="0 0 509.287 509.287" xml:space="preserve" fill="#000000">
<g id="SVGRepo_bgCarrier" stroke-width="0"/>
<g id="SVGRepo_tracerCarrier" stroke-linecap="round" stroke-linejoin="round"/>
<g id="SVGRepo_iconCarrier"> <circle style="fill:#F1F3F7;" cx="254.644" cy="254.644" r="254.644"/> <path style="fill:#F8B517;" d="M276.005,81.717H103.078c-21.362,0-38.993,17.293-38.993,38.993v116.641 c0,21.362,17.293,38.993,38.993,38.993h12.546l28.143,36.62l28.143-36.62h103.756c21.362,0,38.993-17.293,38.993-38.993V120.71 C314.999,99.009,297.367,81.717,276.005,81.717z"/> <path style="fill:#FBD303;" d="M419.772,209.886H246.845c-21.362,0-38.993,17.293-38.993,38.993v116.641 c0,21.362,17.293,38.993,38.993,38.993h12.546l28.143,36.62l28.143-36.62h103.756c21.362,0,38.993-17.293,38.993-38.993V248.879 C458.766,227.179,441.134,209.886,419.772,209.886z"/> <g> <circle style="fill:#FFFFFF;" cx="270.241" cy="312.964" r="23.057"/> <circle style="fill:#FFFFFF;" cx="333.309" cy="312.964" r="23.057"/> <circle style="fill:#FFFFFF;" cx="396.376" cy="312.964" r="23.057"/> </g> </g>
</svg>