<!DOCTYPE svg PUBLIC "-//W3C//DTD SVG 1.1//EN" "http://www.w3.org/Graphics/SVG/1.1/DTD/svg11.dtd">
<!-- Uploaded to: SVG Repo, www.svgrepo.com, Transformed by: SVG Repo Mixer Tools -->
<svg width="64px" height="64px" viewBox="-2.4 -2.4 28.80 28.80" fill="none" xmlns="http://www.w3.org/2000/svg">
<g id="SVGRepo_bgCarrier" stroke-width="0">
<rect x="-2.4" y="-2.4" width="28.80" height="28.80" rx="1.44" fill="#44475a" strokewidth="0"/>
</g>
<g id="SVGRepo_tracerCarrier" stroke-linecap="round" stroke-linejoin="round"/>
<g id="SVGRepo_iconCarrier"> <path d="M4 2C4.55228 2 5 2.44772 5 3V10C5 10.5523 4.55228 11 4 11C3.44772 11 3 10.5523 3 10V3C3 2.44772 3.44772 2 4 2Z" fill="#ffdd00"/> <path d="M5 15H7C7.55228 15 8 14.5523 8 14C8 13.4477 7.55228 13 7 13H1C0.447715 13 0 13.4477 0 14C0 14.5523 0.447715 15 1 15H3V21C3 21.5523 3.44772 22 4 22C4.55228 22 5 21.5523 5 21V15Z" fill="#ffdd00"/> <path d="M13 12C13 11.4477 12.5523 11 12 11C11.4477 11 11 11.4477 11 12V21C11 21.5523 11.4477 22 12 22C12.5523 22 13 21.5523 13 21V12Z" fill="#ffdd00"/> <path d="M12 2C12.5523 2 13 2.44772 13 3V7H15C15.5523 7 16 7.44772 16 8C16 8.55228 15.5523 9 15 9H9C8.44771 9 8 8.55228 8 8C8 7.44772 8.44771 7 9 7H11V3C11 2.44772 11.4477 2 12 2Z" fill="#ffdd00"/> <path d="M21 15H23C23.5523 15 24 14.5523 24 14C24 13.4477 23.5523 13 23 13H17C16.4477 13 16 13.4477 16 14C16 14.5523 16.4477 15 17 15H19V21C19 21.5523 19.4477 22 20 22C20.5523 22 21 21.5523 21 21V15Z" fill="#ffdd00"/> <path d="M20 2C19.4477 2 19 2.44772 19 3V10C19 10.5523 19.4477 11 20 11C20.5523 11 21 10.5523 21 10V3C21 2.44772 20.5523 2 20 2Z" fill="#ffdd00"/> </g>
</svg>