<!DOCTYPE svg PUBLIC "-//W3C//DTD SVG 1.1//EN" "http://www.w3.org/Graphics/SVG/1.1/DTD/svg11.dtd">
<!-- Uploaded to: SVG Repo, www.svgrepo.com, Transformed by: SVG Repo Mixer Tools -->
<svg height="800px" width="800px" version="1.1" id="Layer_1" xmlns="http://www.w3.org/2000/svg" xmlns:xlink="http://www.w3.org/1999/xlink" viewBox="0 0 512 512" xml:space="preserve" fill="#000000">
<g id="SVGRepo_bgCarrier" stroke-width="0"/>
<g id="SVGRepo_tracerCarrier" stroke-linecap="round" stroke-linejoin="round"/>
<g id="SVGRepo_iconCarrier"> <circle style="fill:#83CF8F;" cx="256" cy="256" r="256"/> <ellipse style="fill:#75BD80;" cx="256" cy="421.6" rx="182.3" ry="14.4"/> <path style="fill:#666666;" d="M66,67.2h380c12.5,0,22.7,10.2,22.7,22.7V324H43.3V89.9C43.3,77.4,53.6,67.2,66,67.2z"/> <path style="fill:#6B7F9E;" d="M58.7,308.6h394.6V89.9c0-4-3.3-7.3-7.3-7.3H66c-4,0-7.3,3.3-7.3,7.3V308.6z"/> <path style="fill:#FFFFFF;" d="M468.7,324v24.8c0,12.5-11.3,22.7-25,22.7H68.3c-13.8,0-25-10.2-25-22.7V324H468.7z"/> <g> <circle style="fill:#E4E7ED;" cx="256" cy="346.8" r="7.8"/> <polygon style="fill:#E4E7ED;" points="305.1,407.3 341.1,418.8 170.8,418.8 200,407.3 200,371.6 305.1,371.6 "/> </g> <polygon style="fill:#C6CBD6;" points="305.1,407.3 200,371.6 305.1,371.6 "/> <g> <polygon style="fill:#ECF0F1;" points="200,407.3 305.1,407.3 341.1,418.8 341.1,423.8 256,423.8 170.8,423.8 170.8,418.8 "/> <path style="fill:#ECF0F1;" d="M58.9,82.7h43.8v23.1c0,9.9-9.8,18-21.9,18l0,0c-12,0-21.9-8.1-21.9-18 C58.9,105.8,58.9,82.7,58.9,82.7z"/> </g> <path style="fill:#FF7069;" d="M102.7,82.7h43.8v23.1c0,9.9-9.8,18-21.9,18l0,0c-12,0-21.9-8.1-21.9-18V82.7z"/> <path style="fill:#ECF0F1;" d="M146.5,82.7h43.8v23.1c0,9.9-9.8,18-21.9,18l0,0c-12,0-21.9-8.1-21.9-18L146.5,82.7L146.5,82.7z"/> <path style="fill:#FF7069;" d="M190.3,82.7h43.8v23.1c0,9.9-9.8,18-21.9,18l0,0c-12,0-21.9-8.1-21.9-18L190.3,82.7L190.3,82.7z"/> <path style="fill:#ECF0F1;" d="M234.1,82.7h43.8v23.1c0,9.9-9.8,18-21.9,18l0,0c-12,0-21.9-8.1-21.9-18V82.7z"/> <path style="fill:#FF7069;" d="M277.9,82.7h43.8v23.1c0,9.9-9.8,18-21.9,18l0,0c-12,0-21.9-8.1-21.9-18V82.7L277.9,82.7z"/> <path style="fill:#ECF0F1;" d="M321.7,82.7h43.8v23.1c0,9.9-9.8,18-21.9,18l0,0c-12,0-21.9-8.1-21.9-18V82.7z"/> <path style="fill:#FF7069;" d="M365.5,82.7h43.8v23.1c0,9.9-9.8,18-21.9,18l0,0c-12,0-21.9-8.1-21.9-18V82.7z"/> <path style="fill:#ECF0F1;" d="M409.3,82.7h43.8v23.1c0,9.9-9.8,18-21.9,18l0,0c-12,0-21.9-8.1-21.9-18V82.7L409.3,82.7z"/> <path style="fill:#FFE356;" d="M317.1,204.4c-20.4,0-40.7,0-61.1,0s-40.7,0-61.1,0h-0.1c-3.4,0-5.6,2.8-4.8,6.3 c2.7,11.6,5.3,23.2,8,34.9c2.7,11.6,5.3,23.2,8,34.8c0.8,3.4,3.5,6.3,6,6.3c14.6,0,29.4,0,44,0c14.6,0,29.4,0,44,0 c2.5,0,5.2-2.8,6-6.3c2.7-11.6,5.3-23.2,8-34.8s5.3-23.2,8-34.9C322.7,207.2,320.5,204.4,317.1,204.4z M218.9,274.5 c-0.1,0-0.2,0-0.3,0c-1.2,0-2.3-1.2-2.6-2.8c-1.6-9-3.2-18-4.7-27c-1.6-9-3.2-18-4.7-27c-0.3-1.5,0.7-2.8,2.2-2.8h0.1 c0.1,0,0.3,0,0.3,0c1.4,0,2.8,1.2,3,2.8c1.4,9,2.8,18,4.2,27s2.8,18,4.2,27C220.8,273.3,220.1,274.5,218.9,274.5z M234.1,273.7 c-0.1,0-0.2,0-0.3,0c-1.2,0-2.2-1.2-2.4-2.8c-1-9-1.9-18-2.9-27s-1.9-18-2.9-27c-0.1-1.5,0.9-2.8,2.3-2.8c0.1,0,0.2,0,0.3,0 c1.4,0,2.8,1.2,2.9,2.8c0.8,9,1.6,18,2.4,27c0.8,9,1.6,18,2.3,27C236.1,272.5,235.2,273.7,234.1,273.7z M307,218.1 c-1.4,7.7-2.8,15.5-4.3,23.2c1.7,3.7,2.6,7.8,2.6,12.1c0,16.2-13.1,29.4-29.4,29.4c-10.5,0-19.7-5.5-24.9-13.8l0.1,1.9 c0,1.5-0.9,2.8-2.1,2.8c-0.1,0-0.2,0-0.3,0c-1.2,0-2.1-1.2-2.2-2.8c-0.3-9-0.7-18-1.1-27c-0.3-9-0.7-18-1.1-27 c-0.1-1.5,1-2.8,2.5-2.8c0.1,0,0.3,0,0.3,0c1.4,0,2.7,1.2,2.7,2.8c0.1,7.4,0.3,14.6,0.5,22c3-5.2,7.4-9.3,12.7-11.9 c0.1-3.4,0.2-6.7,0.3-10.1c0.1-1.5,1.2-2.8,2.8-2.8c0.1,0,0.3,0,0.4,0c1.4,0,2.5,1.2,2.5,2.8c-0.1,2.7-0.3,5.4-0.3,8.1 c2.3-0.6,4.7-0.9,7.3-0.9c2,0,3.9,0.2,5.8,0.6c0.3-2.6,0.5-5.2,0.8-7.8c0.1-1.5,1.4-2.8,2.9-2.8c0.1,0,0.3,0,0.3,0 c1.4,0,2.5,1.2,2.3,2.8c-0.3,3.1-0.7,6.2-1.1,9.4c4.5,1.9,8.5,4.8,11.6,8.5c0.9-5.6,1.8-11.1,2.7-16.7c0.3-1.5,1.6-2.8,3.1-2.8 l0.1,0.1c0.1,0,0.3,0,0.3,0C306.3,215.4,307.3,216.6,307,218.1z"/> <path style="fill:#FCD34E;" d="M193.4,208.9l126.6-0.4l-7.6,13.9h-6.1l0.8-4.3c0.3-1.5-0.7-2.8-2.1-2.8c-0.1,0-0.3,0-0.3,0 c-1.4,0-2.8,1.2-3.1,2.8l-0.7,4.3h-13.1l0.6-5.5c0.1-1.5-0.9-2.8-2.3-2.8c-0.1,0-0.3,0-0.3,0c-1.4,0-2.8,1.2-2.9,2.8 c-0.1,1.9-0.3,3.6-0.5,5.5h-13.1l0.3-5.5c0.1-1.5-1-2.8-2.5-2.8c-0.1,0-0.3,0-0.4,0c-1.4,0-2.7,1.2-2.8,2.8l-0.1,5.5h-13.1l-0.1-5.5 c0-1.5-1.2-2.8-2.7-2.8c-0.1,0-0.3,0-0.3,0c-1.4,0-2.6,1.2-2.5,2.8l0.2,5.5h-13.1l-0.5-5.5c-0.1-1.5-1.4-2.8-2.9-2.8 c-0.1,0-0.3,0-0.4,0c-1.4,0-2.5,1.2-2.3,2.8l0.6,5.5h-13.1l-0.8-4.7c-0.2-1.5-1.6-2.8-3-2.8c-0.1,0-0.3,0-0.3,0 c-1.4,0-2.4,1.2-2.2,2.8l0.8,4.7h-7.8l-6.3-13.5H193.4z"/> <path style="fill:#FFE356;" d="M186.1,197.3h139.7c4,0,7.2,3.2,7.2,7.2l0,0c0,4-3.2,7.2-7.2,7.2H186.1c-4,0-7.2-3.2-7.2-7.2l0,0 C178.9,200.6,182.1,197.3,186.1,197.3z"/> <path style="fill:#FFFFFF;" d="M183.9,198.9h113.3c0.8,0,1.4,0.7,1.4,1.4l0,0c0,0.8-0.7,1.4-1.4,1.4H183.9c-0.8,0-1.4-0.7-1.4-1.4 l0,0C182.5,199.5,183.2,198.9,183.9,198.9z"/> <path style="fill:#FF7069;" d="M275.7,224.1c16.5,0,29.9,13.4,29.9,29.9s-13.4,29.9-29.9,29.9s-29.9-13.4-29.9-29.9 S259.2,224.1,275.7,224.1z"/> <path style="fill:#FFFFFF;" d="M275.7,229c13.8,0,25,11.1,25,25c0,13.8-11.1,25-25,25c-13.8,0-25-11.1-25-25 C250.8,240.2,261.9,229,275.7,229z"/> <polygon style="fill:#596366;" points="282.3,270.9 276,261.2 268.2,266 266.4,238.6 290.9,251.9 283.1,256.8 289.3,266.5 "/> <path style="fill:#FFFFFF;" d="M251.5,144.1L251.5,144.1c1.5,1,1.9,3.1,0.9,4.5l-38.9,57.7c-1,1.5-3.1,1.9-4.5,0.9l0,0 c-1.5-1-1.9-3.1-0.9-4.5L247,145C248,143.4,250,143,251.5,144.1z"/> <circle style="fill:#ECF0F1;" cx="249.2" cy="145.9" r="6.5"/> <path style="fill:#FFFFFF;" d="M260.5,144.1L260.5,144.1c-1.5,1-1.9,3.1-0.9,4.5l38.9,57.7c1,1.5,3.1,1.9,4.5,0.9l0,0 c1.5-1,1.9-3.1,0.9-4.5L265,144.9C264,143.4,261.9,143,260.5,144.1z"/> <circle style="fill:#ECF0F1;" cx="263.2" cy="145.9" r="6.5"/> <g> <circle style="fill:#FFFFFF;" cx="263.2" cy="145.9" r="4.8"/> <circle style="fill:#FFFFFF;" cx="249.2" cy="145.9" r="4.8"/> </g> <g> <circle style="fill:#ECF0F1;" cx="210.8" cy="204.6" r="1.7"/> <circle style="fill:#ECF0F1;" cx="301.2" cy="204.6" r="1.7"/> </g> <polygon style="fill:#E4E7ED;" points="58.9,82.7 102.7,82.7 102.7,89.5 58.9,89.5 "/> <polygon style="fill:#F7635B;" points="102.7,82.7 146.5,82.7 146.5,89.5 102.7,89.5 "/> <polygon style="fill:#E4E7ED;" points="146.5,82.7 190.3,82.7 190.3,89.5 146.5,89.5 "/> <polygon style="fill:#F7635B;" points="190.3,82.7 234.1,82.7 234.1,89.5 190.3,89.5 "/> <polygon style="fill:#E4E7ED;" points="234.1,82.7 277.9,82.7 277.9,89.5 234.1,89.5 "/> <polygon style="fill:#F7635B;" points="277.9,82.7 321.7,82.7 321.7,89.5 277.9,89.5 "/> <polygon style="fill:#E4E7ED;" points="321.7,82.7 365.5,82.7 365.5,89.5 321.7,89.5 "/> <polygon style="fill:#F7635B;" points="365.5,82.7 409.3,82.7 409.3,89.5 365.5,89.5 "/> <polygon style="fill:#E4E7ED;" points="409.3,82.7 453.1,82.7 453.1,89.5 409.3,89.5 "/> </g>
</svg>