<!DOCTYPE svg PUBLIC "-//W3C//DTD SVG 1.1//EN" "http://www.w3.org/Graphics/SVG/1.1/DTD/svg11.dtd">
<!-- Uploaded to: SVG Repo, www.svgrepo.com, Transformed by: SVG Repo Mixer Tools -->
<svg height="800px" width="800px" version="1.1" id="Layer_1" xmlns="http://www.w3.org/2000/svg" xmlns:xlink="http://www.w3.org/1999/xlink" viewBox="0 0 505 505" xml:space="preserve" fill="#000000">
<g id="SVGRepo_bgCarrier" stroke-width="0"/>
<g id="SVGRepo_tracerCarrier" stroke-linecap="round" stroke-linejoin="round"/>
<g id="SVGRepo_iconCarrier"> <circle style="fill:#90DFAA;" cx="252.5" cy="252.5" r="252.5"/> <path style="fill:#FFFFFF;" d="M415.6,381.4H89.4c-1.2,0-2.2-1-2.2-2.2V125.8c0-1.2,1-2.2,2.2-2.2h326.2c1.2,0,2.2,1,2.2,2.2v253.4 C417.8,380.4,416.8,381.4,415.6,381.4z"/> <g> <path style="fill:#324A5E;" d="M140.8,341.4H112c-0.3,0-0.5-0.2-0.5-0.5V149.4c0-0.3,0.2-0.5,0.5-0.5h28.8c0.3,0,0.5,0.2,0.5,0.5 v191.4C141.3,341.1,141.1,341.4,140.8,341.4z"/> <path style="fill:#324A5E;" d="M393.1,341.4h-28.8c-0.3,0-0.5-0.2-0.5-0.5V149.4c0-0.3,0.2-0.5,0.5-0.5h28.8c0.3,0,0.5,0.2,0.5,0.5 v191.4C393.6,341.1,393.4,341.4,393.1,341.4z"/> <path style="fill:#324A5E;" d="M184.4,309.8h-19.5c-0.3,0-0.5-0.2-0.5-0.5V149.4c0-0.3,0.2-0.5,0.5-0.5h19.5c0.3,0,0.5,0.2,0.5,0.5 v159.9C184.9,309.6,184.7,309.8,184.4,309.8z"/> <path style="fill:#324A5E;" d="M220.9,309.8h-19.5c-0.3,0-0.5-0.2-0.5-0.5V149.4c0-0.3,0.2-0.5,0.5-0.5h19.5c0.3,0,0.5,0.2,0.5,0.5 v159.9C221.4,309.6,221.2,309.8,220.9,309.8z"/> <path style="fill:#324A5E;" d="M257.3,309.8h-19.5c-0.3,0-0.5-0.2-0.5-0.5V149.4c0-0.3,0.2-0.5,0.5-0.5h19.5c0.3,0,0.5,0.2,0.5,0.5 v159.9C257.9,309.6,257.6,309.8,257.3,309.8z"/> <path style="fill:#324A5E;" d="M289.5,309.8h-15c-0.3,0-0.5-0.2-0.5-0.5V149.4c0-0.3,0.2-0.5,0.5-0.5h15c0.3,0,0.5,0.2,0.5,0.5 v159.9C290,309.6,289.8,309.8,289.5,309.8z"/> <path style="fill:#324A5E;" d="M317.9,309.8h-15c-0.3,0-0.5-0.2-0.5-0.5V149.4c0-0.3,0.2-0.5,0.5-0.5h15c0.3,0,0.5,0.2,0.5,0.5 v159.9C318.5,309.6,318.2,309.8,317.9,309.8z"/> <path style="fill:#324A5E;" d="M346.4,309.8h-15c-0.3,0-0.5-0.2-0.5-0.5V149.4c0-0.3,0.2-0.5,0.5-0.5h15c0.3,0,0.5,0.2,0.5,0.5 v159.9C346.9,309.6,346.7,309.8,346.4,309.8z"/> </g> <g> <path style="fill:#ACB3BA;" d="M164.2,322.8h7.5v18.4h-4v-14.9h-3.5V322.8z"/> <path style="fill:#ACB3BA;" d="M188.6,325.9c-1.1,0-2,0.4-2.6,1.1c-0.6,0.8-1,1.8-1.1,3.1c1.1-0.7,2.4-1.1,3.6-1.1 c1.7,0,3.2,0.6,4.3,1.7c1.2,1.1,1.7,2.6,1.7,4.5s-0.6,3.4-1.9,4.5c-1.2,1.1-2.8,1.7-4.7,1.7c-1.3,0-2.4-0.2-3.4-0.8 c-1-0.5-1.7-1.2-2.2-2.1c-1.1-1.7-1.6-3.9-1.6-6.5c0-1.7,0.2-3.2,0.6-4.4c0.4-1.3,1-2.3,1.7-3c1.4-1.5,3.1-2.2,5.2-2.2 c0.9,0,1.7,0.1,2.5,0.4s1.4,0.5,1.8,0.8c0.4,0.3,0.9,0.6,1.4,1l-2,2.9c-0.1-0.1-0.3-0.2-0.5-0.4c-0.2-0.2-0.6-0.4-1.2-0.7 C189.7,326,189.2,325.9,188.6,325.9z M188.1,332.5c-0.8,0-1.5,0.2-2.1,0.7s-0.8,1.1-0.8,1.9s0.3,1.4,0.8,2s1.2,0.8,2,0.8 s1.4-0.2,2-0.7c0.5-0.5,0.8-1.1,0.8-1.9s-0.2-1.4-0.7-2C189.5,332.8,188.9,332.5,188.1,332.5z"/> <path style="fill:#ACB3BA;" d="M214.5,322.8v3.6h-7.3v3.1c0.5-0.2,1.2-0.2,1.9-0.2c1.8,0,3.3,0.5,4.6,1.6s1.9,2.5,1.9,4.3 s-0.7,3.3-2,4.5s-3,1.8-4.9,1.8c-2.5,0-4.6-0.9-6.2-2.8l2.2-3c0.2,0.2,0.4,0.4,0.6,0.6c0.3,0.2,0.7,0.5,1.4,0.9s1.4,0.6,2.1,0.6 c0.7,0,1.3-0.2,1.9-0.6c0.5-0.4,0.8-1,0.8-1.9c0-0.8-0.3-1.5-0.9-1.9c-0.6-0.4-1.3-0.7-2.3-0.7c-0.9,0-2,0.3-3.2,1l-1.7-1.8v-9 h11.1V322.8z"/> <path style="fill:#ACB3BA;" d="M222.9,322.8h7.5v18.4h-4v-14.9h-3.5V322.8z"/> <path style="fill:#ACB3BA;" d="M238.8,322.8h7.5v18.4h-4v-14.9h-3.5V322.8z"/> <path style="fill:#ACB3BA;" d="M263.2,325.9c-1.1,0-2,0.4-2.6,1.1c-0.6,0.8-1,1.8-1.1,3.1c1.1-0.7,2.4-1.1,3.6-1.1 c1.7,0,3.2,0.6,4.3,1.7c1.2,1.1,1.7,2.6,1.7,4.5s-0.6,3.4-1.9,4.5c-1.2,1.1-2.8,1.7-4.7,1.7c-1.3,0-2.4-0.2-3.4-0.8 c-1-0.5-1.7-1.2-2.2-2.1c-1.1-1.7-1.6-3.9-1.6-6.5c0-1.7,0.2-3.2,0.6-4.4c0.4-1.3,1-2.3,1.7-3c1.4-1.5,3.1-2.2,5.2-2.2 c0.9,0,1.7,0.1,2.5,0.4s1.4,0.5,1.8,0.8s0.9,0.6,1.4,1l-2,2.9c-0.1-0.1-0.3-0.2-0.5-0.4s-0.6-0.4-1.2-0.7 C264.4,326,263.8,325.9,263.2,325.9z M262.7,332.5c-0.8,0-1.5,0.2-2.1,0.7s-0.8,1.1-0.8,1.9s0.3,1.4,0.8,2s1.2,0.8,2,0.8 s1.4-0.2,2-0.7c0.5-0.5,0.8-1.1,0.8-1.9s-0.2-1.4-0.7-2C264.2,332.8,263.5,332.5,262.7,332.5z"/> <path style="fill:#ACB3BA;" d="M285.1,325.9c-1.1,0-2,0.4-2.6,1.1c-0.6,0.8-1,1.8-1.1,3.1c1.1-0.7,2.4-1.1,3.6-1.1 c1.7,0,3.2,0.6,4.3,1.7c1.2,1.1,1.7,2.6,1.7,4.5s-0.6,3.4-1.9,4.5c-1.2,1.1-2.8,1.7-4.7,1.7c-1.3,0-2.4-0.2-3.4-0.8 c-1-0.5-1.7-1.2-2.2-2.1c-1.1-1.7-1.6-3.9-1.6-6.5c0-1.7,0.2-3.2,0.6-4.4c0.4-1.3,1-2.3,1.7-3c1.4-1.5,3.1-2.2,5.2-2.2 c0.9,0,1.7,0.1,2.5,0.4s1.4,0.5,1.8,0.8s0.9,0.6,1.4,1l-2,2.9c-0.1-0.1-0.3-0.2-0.5-0.4s-0.6-0.4-1.2-0.7 C286.3,326,285.7,325.9,285.1,325.9z M284.6,332.5c-0.8,0-1.5,0.2-2.1,0.7s-0.8,1.1-0.8,1.9s0.3,1.4,0.8,2s1.2,0.8,2,0.8 s1.4-0.2,2-0.7c0.5-0.5,0.8-1.1,0.8-1.9s-0.2-1.4-0.7-2C286,332.8,285.4,332.5,284.6,332.5z"/> <path style="fill:#ACB3BA;" d="M311,322.8v3.6h-7.3v3.1c0.5-0.2,1.2-0.2,1.9-0.2c1.8,0,3.3,0.5,4.6,1.6c1.3,1.1,1.9,2.5,1.9,4.3 s-0.7,3.3-2,4.5s-3,1.8-4.9,1.8c-2.5,0-4.6-0.9-6.2-2.8l2.2-3c0.2,0.2,0.4,0.4,0.6,0.6c0.3,0.2,0.7,0.5,1.4,0.9 c0.7,0.4,1.4,0.6,2.1,0.6s1.3-0.2,1.9-0.6c0.5-0.4,0.8-1,0.8-1.9c0-0.8-0.3-1.5-0.9-1.9s-1.3-0.7-2.3-0.7c-0.9,0-2,0.3-3.2,1 l-1.7-1.8v-9H311V322.8z"/> <path style="fill:#ACB3BA;" d="M319.5,322.8h7.5v18.4h-4v-14.9h-3.5V322.8z"/> <path style="fill:#ACB3BA;" d="M343.9,325.9c-1.1,0-2,0.4-2.6,1.1c-0.6,0.8-1,1.8-1.1,3.1c1.1-0.7,2.4-1.1,3.6-1.1 c1.7,0,3.2,0.6,4.3,1.7c1.2,1.1,1.7,2.6,1.7,4.5s-0.6,3.4-1.9,4.5c-1.2,1.1-2.8,1.7-4.7,1.7c-1.3,0-2.4-0.2-3.4-0.8 c-1-0.5-1.7-1.2-2.2-2.1c-1.1-1.7-1.6-3.9-1.6-6.5c0-1.7,0.2-3.2,0.6-4.4c0.4-1.3,1-2.3,1.7-3c1.4-1.5,3.1-2.2,5.2-2.2 c0.9,0,1.7,0.1,2.5,0.4s1.4,0.5,1.8,0.8s0.9,0.6,1.4,1l-2,2.9c-0.1-0.1-0.3-0.2-0.5-0.4s-0.6-0.4-1.2-0.7 C345,326,344.4,325.9,343.9,325.9z M343.3,332.5c-0.8,0-1.5,0.2-2.1,0.7s-0.8,1.1-0.8,1.9s0.3,1.4,0.8,2s1.2,0.8,2,0.8 s1.4-0.2,2-0.7c0.5-0.5,0.8-1.1,0.8-1.9s-0.2-1.4-0.7-2C344.8,332.8,344.1,332.5,343.3,332.5z"/> </g> </g>
</svg>