<!DOCTYPE svg PUBLIC "-//W3C//DTD SVG 1.1//EN" "http://www.w3.org/Graphics/SVG/1.1/DTD/svg11.dtd">
<!-- Uploaded to: SVG Repo, www.svgrepo.com, Transformed by: SVG Repo Mixer Tools -->
<svg height="800px" width="800px" version="1.1" id="Layer_1" xmlns="http://www.w3.org/2000/svg" xmlns:xlink="http://www.w3.org/1999/xlink" viewBox="0 0 297 297" xml:space="preserve" fill="#000000">
<g id="SVGRepo_bgCarrier" stroke-width="0"/>
<g id="SVGRepo_tracerCarrier" stroke-linecap="round" stroke-linejoin="round"/>
<g id="SVGRepo_iconCarrier"> <g> <g> <g> <g> <circle style="fill:#5E4534;" cx="148.5" cy="148.5" r="148.5"/> </g> </g> </g> <path style="fill:#493120;" d="M244.646,102.769L99,264l31.965,31.964c5.752,0.677,11.602,1.036,17.535,1.036 c79.852,0,144.973-63.029,148.352-142.049L244.646,102.769z"/> <g> <path style="fill:#F4AF30;" d="M148.5,66C84.711,66,33,102.936,33,148.5c0,32.91,26.98,61.315,66,74.556V264l33.765-33.765 c5.146,0.501,10.397,0.765,15.735,0.765c63.789,0,115.5-36.937,115.5-82.5C264,102.936,212.289,66,148.5,66z"/> </g> <g> <path style="fill:#C0392B;" d="M150.3,123.494l5.749,10.449c0.295,0.536,0.814,0.913,1.415,1.028l11.714,2.239 c1.591,0.304,2.221,2.243,1.113,3.424l-8.161,8.697c-0.419,0.446-0.617,1.056-0.54,1.663l1.49,11.833 c0.202,1.607-1.447,2.805-2.913,2.116l-10.793-5.074c-0.554-0.26-1.195-0.26-1.748,0l-10.793,5.074 c-1.466,0.689-3.115-0.509-2.913-2.116l1.49-11.833c0.076-0.607-0.122-1.217-0.54-1.663l-8.161-8.697 c-1.108-1.181-0.478-3.12,1.113-3.424l11.714-2.239c0.601-0.115,1.12-0.492,1.415-1.028l5.749-10.449 C147.48,122.075,149.52,122.075,150.3,123.494z"/> </g> <g> <path style="fill:#C0392B;" d="M90.15,123.494l5.749,10.449c0.295,0.536,0.814,0.913,1.415,1.028l11.714,2.239 c1.591,0.304,2.221,2.243,1.113,3.424l-8.161,8.697c-0.419,0.446-0.617,1.056-0.54,1.663l1.49,11.833 c0.202,1.607-1.447,2.805-2.913,2.116l-10.793-5.074c-0.554-0.26-1.195-0.26-1.748,0l-10.793,5.074 c-1.466,0.689-3.115-0.509-2.913-2.116l1.49-11.833c0.076-0.607-0.122-1.217-0.54-1.663l-8.161-8.697 c-1.108-1.181-0.478-3.12,1.113-3.424l11.714-2.239c0.601-0.115,1.12-0.492,1.415-1.028l5.749-10.449 C87.33,122.075,89.369,122.075,90.15,123.494z"/> </g> <g> <path style="fill:#C0392B;" d="M210.451,123.494l5.749,10.449c0.295,0.536,0.814,0.913,1.415,1.028l11.714,2.239 c1.591,0.304,2.221,2.243,1.113,3.424l-8.161,8.697c-0.419,0.446-0.617,1.056-0.54,1.663l1.49,11.833 c0.202,1.607-1.447,2.805-2.913,2.116l-10.793-5.074c-0.554-0.26-1.195-0.26-1.748,0l-10.793,5.074 c-1.466,0.689-3.115-0.509-2.913-2.116l1.49-11.833c0.076-0.607-0.122-1.217-0.54-1.663l-8.161-8.697 c-1.108-1.181-0.478-3.12,1.113-3.424l11.714-2.239c0.601-0.115,1.12-0.492,1.415-1.028l5.749-10.449 C207.631,122.075,209.67,122.075,210.451,123.494z"/> </g> </g> </g>
</svg>