<!DOCTYPE svg PUBLIC "-//W3C//DTD SVG 1.1//EN" "http://www.w3.org/Graphics/SVG/1.1/DTD/svg11.dtd">
<!-- Uploaded to: SVG Repo, www.svgrepo.com, Transformed by: SVG Repo Mixer Tools -->
<svg height="64px" width="64px" version="1.1" id="_x34_" xmlns="http://www.w3.org/2000/svg" xmlns:xlink="http://www.w3.org/1999/xlink" viewBox="0 0 512 512" xml:space="preserve" fill="#000000">
<g id="SVGRepo_bgCarrier" stroke-width="0"/>
<g id="SVGRepo_tracerCarrier" stroke-linecap="round" stroke-linejoin="round"/>
<g id="SVGRepo_iconCarrier"> <g> <path style="opacity:0.1;fill:#FFFFFF;" d="M314.479,47.943c-11.14-7.888-22.281-13.987-32.364-18.215 C230.886,8.098,123.629-1.335,51.989,85.918c-5.367,6.505-10.327,13.01-14.881,19.516c-3.009,4.229-5.773,8.376-8.457,12.604 c-6.831,10.733-12.604,21.223-17.158,31.632c-2.439,5.286-4.635,10.572-6.424,15.857c2.359-10.002,5.855-20.329,10.327-30.819 c4.229-10.409,9.595-20.898,15.938-31.632c2.439-4.229,5.123-8.375,7.888-12.685c4.229-6.424,8.782-12.93,13.824-19.516 c66.517-87.253,166.211-77.739,213.862-56.108c9.677,4.391,20.573,10.815,31.388,19.191 C303.745,38.103,309.193,42.738,314.479,47.943z"/> <g> <g> <path style="fill:#B84955;" d="M365.695,212.696c-1.708,8.376-3.659,16.508-5.855,24.151c-1.219,4.472-2.521,8.782-3.903,12.929 c-9.107,27.648-21.224,50.498-35.454,69.038v0.081c-1.139,1.382-2.196,2.765-3.253,4.066 c-10.571,12.93-22.281,23.419-34.803,31.795c0,0,0,0.081-0.081,0.081c-2.602,1.789-5.204,3.497-7.888,4.961 c-0.081,0-0.081,0-0.081,0c-13.986,8.05-28.786,13.498-43.992,16.507c-2.602,0.488-5.204,0.894-7.888,1.22l0.244-0.488 l-30.087-13.661l-30.168-13.661L22.946,286.288c-0.976-1.464-1.87-3.009-2.846-4.472c-16.67-27.973-23.826-61.638-18.215-98.962 c0.569-3.415,1.138-6.831,1.87-10.246c2.521-12.197,6.505-24.964,12.035-37.893c4.31-10.409,9.595-20.898,15.938-31.632 c2.521-4.229,5.123-8.376,7.887-12.685c4.229-6.424,8.864-12.929,13.824-19.516c66.517-87.252,166.211-77.739,213.862-56.108 c1.708,0.813,3.497,1.626,5.286,2.521c8.294,4.228,17.158,9.758,26.103,16.588c12.848,9.92,25.777,22.525,36.999,37.731 c5.367,7.237,10.327,14.962,14.555,23.338c9.352,17.646,16.1,37.812,18.54,60.418 C370.655,173.014,369.842,192.204,365.695,212.696z"/> <path style="fill:#E5C294;" d="M222.741,377.037l-0.244,0.488c-2.033,0.325-4.066,0.569-6.18,0.813 c-30.25,2.765-63.427,2.196-84.325,16.101c-0.081,0-0.163,0-0.163,0.081c-4.472,3.09-8.376,6.587-11.628,11.14 c-28.705,63.264-47.163,91.319-58.954,102.703c-5.042-1.382-10.327-3.334-16.02-5.936v0.081l-0.244-0.081 c-2.521-1.138-4.798-2.277-6.993-3.496c-0.651-0.325-1.22-0.732-1.871-1.057c-1.707-0.976-3.497-2.033-5.042-3.009 c0.081-0.813,0.081-1.708,0.163-2.684c0.406-3.74,1.139-8.213,2.358-13.58c4.31-19.028,14.718-48.953,36.023-95.872 c1.383-5.936,1.464-11.791,0.569-17.646v-0.162c-4.066-24.395-25.777-48.383-43.098-72.535c-1.464-2.033-2.846-4.066-4.147-6.099 l139.539,63.427l30.168,13.661L222.741,377.037z"/> <g> <path style="fill:#F5DDA8;" d="M122.64,332.15L74.826,437.374l-0.081,0.081l-29.518,64.972v0.081l-0.244-0.081 c-2.521-1.138-4.798-2.277-6.993-3.496c-0.651-0.325-1.22-0.732-1.871-1.057c-1.707-0.976-3.497-2.033-5.042-3.009 c-0.651-0.406-1.301-0.813-1.789-1.22c-2.277-1.464-4.31-3.009-6.262-4.472c-4.635-3.578-8.376-7.156-11.222-10.49l2.033-3.904 l4.147-7.969l52.205-101.808v-0.081l1.057-2.033l22.443-43.83L122.64,332.15z"/> <path style="fill:#F5DDA8;" d="M85.143,512c-6.441,0.022-14.516-0.877-23.899-3.62c-5.001-1.378-10.352-3.362-15.979-5.917 l77.339-170.289l28.949,13.148l-19.528,49.093L85.143,512z"/> </g> <g style="opacity:0.04;"> <ellipse transform="matrix(0.9105 0.4135 -0.4135 0.9105 25.0617 -76.2186)" style="fill:#040000;" cx="188.602" cy="19.785" rx="8" ry="7.736"/> <ellipse transform="matrix(0.9105 0.4135 -0.4135 0.9105 43.2414 -100.6633)" style="fill:#040000;" cx="254.159" cy="49.559" rx="8" ry="7.735"/> <ellipse transform="matrix(0.9105 0.4135 -0.4135 0.9105 61.4206 -125.1071)" style="fill:#040000;" cx="319.715" cy="79.332" rx="8" ry="7.735"/> <ellipse transform="matrix(0.9105 0.4135 -0.4135 0.9105 30.537 -52.3208)" style="fill:#040000;" cx="136.135" cy="44.383" rx="8" ry="7.736"/> <ellipse transform="matrix(0.9105 0.4135 -0.4135 0.9105 48.7166 -76.7651)" style="fill:#040000;" cx="201.691" cy="74.156" rx="8" ry="7.736"/> <ellipse transform="matrix(0.9105 0.4135 -0.4135 0.9105 66.8957 -101.2087)" style="fill:#040000;" cx="267.247" cy="103.929" rx="8" ry="7.736"/> <ellipse transform="matrix(0.9105 0.4135 -0.4135 0.9105 85.0747 -125.6524)" style="fill:#040000;" cx="332.803" cy="133.703" rx="8" ry="7.736"/> <ellipse transform="matrix(0.9105 0.4135 -0.4135 0.9105 37.0834 -29.3145)" style="fill:#040000;" cx="86.261" cy="71.009" rx="8" ry="7.735"/> <ellipse transform="matrix(0.9105 0.4135 -0.4135 0.9105 55.2623 -53.7581)" style="fill:#040000;" cx="151.817" cy="100.782" rx="8" ry="7.736"/> <ellipse transform="matrix(0.9105 0.4135 -0.4135 0.9105 73.4412 -78.2016)" style="fill:#040000;" cx="217.373" cy="130.555" rx="8" ry="7.736"/> <ellipse transform="matrix(0.9105 0.4135 -0.4135 0.9105 91.6216 -102.6462)" style="fill:#040000;" cx="282.93" cy="160.328" rx="8" ry="7.735"/> <ellipse transform="matrix(0.9105 0.4135 -0.4135 0.9105 109.8008 -127.09)" style="fill:#040000;" cx="348.486" cy="190.101" rx="8" ry="7.735"/> <ellipse transform="matrix(0.9105 0.4135 -0.4135 0.9105 60.7378 -29.8605)" style="fill:#040000;" cx="99.349" cy="125.38" rx="8" ry="7.736"/> <ellipse transform="matrix(0.9105 0.4135 -0.4135 0.9105 78.9167 -54.3041)" style="fill:#040000;" cx="164.906" cy="155.153" rx="8" ry="7.736"/> <ellipse transform="matrix(0.9105 0.4135 -0.4135 0.9105 97.0971 -78.7484)" style="fill:#040000;" cx="230.462" cy="184.926" rx="8" ry="7.735"/> <ellipse transform="matrix(0.9105 0.4135 -0.4135 0.9105 115.2756 -103.1918)" style="fill:#040000;" cx="296.018" cy="214.699" rx="8" ry="7.736"/> <ellipse transform="matrix(0.9105 0.4135 -0.4135 0.9105 67.2848 -6.854)" style="fill:#040000;" cx="49.475" cy="152.005" rx="8" ry="7.736"/> <ellipse transform="matrix(0.9105 0.4135 -0.4135 0.9105 85.4629 -31.2976)" style="fill:#040000;" cx="115.032" cy="181.778" rx="8" ry="7.735"/> <ellipse transform="matrix(0.9105 0.4135 -0.4135 0.9105 103.6417 -55.7411)" style="fill:#040000;" cx="180.588" cy="211.551" rx="8" ry="7.736"/> <ellipse transform="matrix(0.9105 0.4135 -0.4135 0.9105 121.8225 -80.1854)" style="fill:#040000;" cx="246.144" cy="241.324" rx="8" ry="7.735"/> <ellipse transform="matrix(0.9105 0.4135 -0.4135 0.9105 140.0017 -104.6292)" style="fill:#040000;" cx="311.7" cy="271.097" rx="8" ry="7.735"/> <ellipse transform="matrix(0.9105 0.4135 -0.4135 0.9105 90.9384 -7.4001)" style="fill:#040000;" cx="62.564" cy="206.376" rx="8" ry="7.735"/> <ellipse transform="matrix(0.9105 0.4135 -0.4135 0.9105 109.1173 -31.8436)" style="fill:#040000;" cx="128.12" cy="236.149" rx="8" ry="7.736"/> <ellipse transform="matrix(0.9105 0.4135 -0.4135 0.9105 127.2981 -56.2875)" style="fill:#040000;" cx="193.676" cy="265.922" rx="8" ry="7.735"/> <ellipse transform="matrix(0.9105 0.4135 -0.4135 0.9105 145.4773 -80.7313)" style="fill:#040000;" cx="259.233" cy="295.695" rx="8" ry="7.735"/> <path style="fill:#040000;" d="M320.465,318.853c-1.086,1.384-2.173,2.768-3.28,4.1c0.093-0.253,0.194-0.523,0.313-0.786 C318.15,320.733,319.188,319.602,320.465,318.853z"/> <ellipse transform="matrix(0.9105 0.4135 -0.4135 0.9105 97.4854 15.6068)" style="fill:#040000;" cx="12.69" cy="233.001" rx="8" ry="7.735"/> <ellipse transform="matrix(0.9105 0.4135 -0.4135 0.9105 115.6627 -8.8372)" style="fill:#040000;" cx="78.246" cy="262.774" rx="8" ry="7.735"/> <ellipse transform="matrix(0.9105 0.4135 -0.4135 0.9105 133.8415 -33.2806)" style="fill:#040000;" cx="143.802" cy="292.547" rx="8" ry="7.736"/> <ellipse transform="matrix(0.9105 0.4135 -0.4135 0.9105 152.0212 -57.7242)" style="fill:#040000;" cx="209.359" cy="322.32" rx="8" ry="7.736"/> <ellipse transform="matrix(0.9105 0.4135 -0.4135 0.9105 170.2026 -82.1683)" style="fill:#040000;" cx="274.915" cy="352.094" rx="8" ry="7.736"/> </g> </g> <path style="opacity:0.06;fill:#040000;" d="M367.109,145.097L23.039,489.167c1.929,1.504,3.966,3.01,6.214,4.505 c0.559,0.343,1.158,0.794,1.791,1.171c1.602,0.995,3.352,2.058,5.061,3.013c2.753,1.607,5.648,3.101,8.905,4.581l0.222,0.101 l0.034-0.074c5.627,2.556,10.978,4.539,15.978,5.917c9.382,2.743,17.458,3.642,23.899,3.62l46.883-117.584 c20.878-13.917,54.016-13.335,84.299-16.105c2.066-0.223,4.132-0.446,6.157-0.776l0.235-0.518l-30.044-13.645l30.076,13.66 l-0.235,0.518c2.639-0.32,5.236-0.749,7.865-1.251c15.218-3.002,30.052-8.411,43.965-16.471c0.026-0.014,0.05-0.033,0.076-0.048 c3.237,0.278,6.4-1.34,7.779-4.378c0.086-0.19,0.062-0.394,0.132-0.587c0.008-0.005,0.015-0.009,0.022-0.014 c0.076,0.035,0.11-0.039,0.11-0.039c12.477-8.355,24.172-18.852,34.768-31.811c1.055-1.307,2.144-2.688,3.233-4.069 c14.239-18.54,26.387-41.424,35.448-69.103c1.433-4.171,2.746-8.487,3.94-12.946c2.19-7.669,4.098-15.734,5.876-24.124 c4.152-20.531,4.897-39.662,3.025-57.303C368.379,151.868,367.69,148.514,367.109,145.097z"/> </g> <g> <circle style="fill:#E88A3E;" cx="340.761" cy="422.087" r="45.259"/> <path style="opacity:0.1;fill:#FBDCC5;" d="M340.761,376.829c-24.996,0-45.259,20.263-45.259,45.258 c0,12.498,5.065,23.812,13.256,32.003l64.005-64.005C364.573,381.894,353.259,376.829,340.761,376.829z"/> </g> </g> </g>
</svg>