<!DOCTYPE svg PUBLIC "-//W3C//DTD SVG 1.1//EN" "http://www.w3.org/Graphics/SVG/1.1/DTD/svg11.dtd">
<!-- Uploaded to: SVG Repo, www.svgrepo.com, Transformed by: SVG Repo Mixer Tools -->
<svg version="1.1" id="Layer_1" xmlns="http://www.w3.org/2000/svg" xmlns:xlink="http://www.w3.org/1999/xlink" viewBox="0 0 512 512" xml:space="preserve" width="64px" height="64px" fill="#000000">
<g id="SVGRepo_bgCarrier" stroke-width="0"/>
<g id="SVGRepo_tracerCarrier" stroke-linecap="round" stroke-linejoin="round"/>
<g id="SVGRepo_iconCarrier"> <path style="fill:#FB9DA4;" d="M502.388,186.283C472.031,78.782,373.217,0,256,0C114.616,0,0,114.616,0,256 c0,117.217,78.782,216.031,186.283,246.388L502.388,186.283z"/> <path style="fill:#F97D85;" d="M512,256c0-24.168-3.354-47.551-9.612-69.717l-88.336-88.336l-8.515,8.515L370.12,71.046 L63.175,362.251l43.287,43.286l-8.515,8.515l88.336,88.336C208.447,508.647,231.832,512,256,512C397.384,512,512,397.384,512,256z"/> <polygon style="fill:#263230;" points="118.268,291.417 63.175,362.251 130.074,334.704 "/> <polygon style="fill:#394B48;" points="90.722,295.352 63.175,362.251 126.138,299.287 "/> <rect x="319.639" y="50.134" transform="matrix(0.7071 0.7071 -0.7071 0.7071 163.8119 -206.1654)" style="fill:#FFFFFF;" width="22.261" height="89.043"/> <polygon style="fill:#394B48;" points="366.186,98.592 346.509,78.916 220.583,189.102 110.397,315.028 130.074,334.704 334.704,130.074 330.769,110.397 350.445,114.333 "/> <polygon style="fill:#4C6460;" points="326.834,59.24 303.223,82.852 244.195,126.138 200.909,185.165 90.722,295.352 110.397,315.028 346.509,78.916 "/> <polygon style="fill:#B1EAE5;" points="350.445,114.333 330.769,94.657 315.028,94.657 315.028,110.397 334.704,130.074 "/> <polygon style="fill:#FFFFFF;" points="330.769,94.657 295.352,59.24 185.167,169.425 200.908,185.167 295.352,90.722 315.028,110.397 "/> <polygon style="fill:#FEF2CC;" points="256,256 267.806,283.547 295.353,295.353 358.4,232.304 358.4,358.4 342.659,374.141 414.052,414.052 414.052,380.661 402.922,369.53 414.052,358.4 414.052,336.139 402.922,325.009 414.052,313.878 414.052,291.617 402.922,280.487 414.052,269.357 414.052,247.096 402.922,235.965 414.052,224.835 414.052,202.574 402.922,191.443 414.052,180.313 414.052,97.948 "/> <g> <rect x="391.791" y="180.313" style="fill:#FBD867;" width="22.261" height="22.261"/> <rect x="391.791" y="224.835" style="fill:#FBD867;" width="22.261" height="22.261"/> <rect x="391.791" y="269.357" style="fill:#FBD867;" width="22.261" height="22.261"/> <rect x="391.791" y="313.878" style="fill:#FBD867;" width="22.261" height="22.261"/> <rect x="391.791" y="358.4" style="fill:#FBD867;" width="22.261" height="22.261"/> </g> <polygon style="fill:#FFFFFF;" points="358.4,358.4 232.304,358.4 295.353,295.353 256,256 97.948,414.052 180.313,414.052 191.443,402.922 202.574,414.052 224.835,414.052 235.965,402.922 247.096,414.052 269.357,414.052 280.487,402.922 291.617,414.052 313.878,414.052 325.009,402.922 336.139,414.052 358.4,414.052 369.53,402.922 380.661,414.052 414.052,414.052 "/> <g> <rect x="358.4" y="391.791" style="fill:#FEF2CC;" width="22.261" height="22.261"/> <rect x="313.878" y="391.791" style="fill:#FEF2CC;" width="22.261" height="22.261"/> <rect x="269.357" y="391.791" style="fill:#FEF2CC;" width="22.261" height="22.261"/> <rect x="224.835" y="391.791" style="fill:#FEF2CC;" width="22.261" height="22.261"/> <rect x="180.313" y="391.791" style="fill:#FEF2CC;" width="22.261" height="22.261"/> </g> </g>
</svg>