<!DOCTYPE svg PUBLIC "-//W3C//DTD SVG 1.1//EN" "http://www.w3.org/Graphics/SVG/1.1/DTD/svg11.dtd">
<!-- Uploaded to: SVG Repo, www.svgrepo.com, Transformed by: SVG Repo Mixer Tools -->
<svg height="64px" width="64px" version="1.1" id="Layer_1" xmlns="http://www.w3.org/2000/svg" xmlns:xlink="http://www.w3.org/1999/xlink" viewBox="0 0 508.78 508.78" xml:space="preserve" fill="#000000">
<g id="SVGRepo_bgCarrier" stroke-width="0"/>
<g id="SVGRepo_tracerCarrier" stroke-linecap="round" stroke-linejoin="round"/>
<g id="SVGRepo_iconCarrier"> <path style="fill:#E9B526;" d="M452,128.39c-8-17.6-21.6-30.4-40-32c-1.2,0-2.8,0-4,0H274.4c0,0-0.4,0-1.6,0c0,0,0,0-0.4,0 c-0.8,0-44.4-44-44.4-44H56.8c-26.4,0-49.2,20-49.2,44.4v308c0,9.2,3.6,18,8.8,25.6c-2.8-7.6-3.6-16.4-2-25.2l40.4-228.8h396.4 C452,176.39,452,128.39,452,128.39z"/> <g> <path style="fill:#CCCCCC;" d="M274,96.39c0.4,0,0.4,0,0.8,0H274L274,96.39L274,96.39z"/> <polygon style="fill:#CCCCCC;" points="273.6,96.39 273.6,96.39 272.8,96.39 "/> </g> <path style="fill:#E8BB85;" d="M494.4,145.59c-7.2-8.4-17.6-13.2-30-13.2h-11.6h-48H287.6h-174c-25.6,0-50,20.4-54.4,45.6 l-40.4,228.4c-2,12.4,0.8,24,8,32.8c3.2,4,7.2,7.2,12,9.2c5.6,2.4,12,4,18,4h350l0,0c25.2,0,50-21.6,54.4-47.2l40.4-227.6 C504.4,165.59,501.6,153.99,494.4,145.59z"/> <path style="fill:#CCCCCC;" d="M56.8,452.39h0.4c-6.4,0-12.4-1.6-18-4C44.4,451.19,50.4,452.39,56.8,452.39z"/> <path style="fill:#EF934A;" d="M250,205.59l4.4-24c0.4-1.2,0-2.8-0.8-3.6c-0.8-1.2-2.4-1.6-4-1.6h-136c-3.6,0-6.8,2.4-7.6,5.6 l-4.4,24c-0.4,1.6,0,3.6,1.2,4.8c0.8,1.2,2,1.6,3.6,1.6h136C246,212.39,249.6,208.79,250,205.59z"/> <path d="M408,460.39H57.2c-28.8,0-57.2-27.6-57.2-55.6v-308c0-30,29.6-48.4,57.2-48.4h172c1.2,0,2,0.4,2.8,1.2l44,44 c1.6,1.6,1.6,4,0,5.6s-4,1.6-5.6,0l-42.8-43.2H57.2c-24,0-49.2,16.4-49.2,40.4v308c0,23.6,24.8,47.6,49.2,47.6H408c2.4,0,4,1.6,4,4 S410,460.39,408,460.39z"/> <path d="M242.8,216.79h-136c-3.2,0-6.4-1.2-8.4-3.6s-2.8-5.6-2.4-8.8l4.4-24.4c1.2-6.4,6.8-11.2,13.2-11.2h136 c3.2,0,6.4,1.2,8.4,3.6s2.8,5.6,2.4,8.8l-4.4,24.4l0,0C254.8,211.99,249.2,216.79,242.8,216.79z M114,176.79c-2.4,0-5.2,2-5.6,4.4 l-4.4,24.4c0,0.8,0,1.6,0.4,2.4c0.4,0.4,1.2,0.8,2,0.8h136c2.4,0,5.2-2,5.6-4.4l4.4-24.4c0-0.8,0-1.6-0.4-2.4 c-0.4-0.4-1.2-0.8-2-0.8H114z"/> <path d="M244,248.39H92c-2.4,0-4-1.6-4-4s1.6-4,4-4h152c2.4,0,4,1.6,4,4S246,248.39,244,248.39z"/> <path d="M407.6,460.39H56.8c-13.6,0-25.6-5.6-34-15.2c-8.4-10-12-24-9.6-38.4l40-228.8c4.8-27.6,31.6-49.6,60.4-49.6h290 c2.4,0,4,1.6,4,4s-1.6,4-4,4h-290c-25.2,0-48.4,18.8-52.4,42.8l-40,228.8c-2,12,0.8,23.2,7.6,31.6c6.8,8,16.8,12.4,28,12.4h350.8 c24,0,48-21.2,52.4-46.4l40.4-227.2c2-11.6-0.4-22-7.2-30c-6.8-8-16.8-12.4-28.4-12.4H456c-2.4,0-4-1.6-4-4s1.6-4,4-4h8.8 c14,0,26.4,5.2,34.4,15.2c8,9.6,11.2,22.8,8.8,36.4l-40.4,227.2C462.8,435.99,435.2,460.39,407.6,460.39z"/> <path d="M453.6,133.99c-1.6,0-3.2-1.2-4-2.8c-5.2-19.2-22.4-32.8-42-32.8H272.8l0,0c-2.4,0-4-1.6-4-4s1.6-4,4-4h134.8 c23.2,0,43.6,16,49.6,38.8c0.4,2-0.8,4.4-2.8,4.8C454.4,133.99,454,133.99,453.6,133.99z"/> </g>
</svg>