<!DOCTYPE svg PUBLIC "-//W3C//DTD SVG 1.1//EN" "http://www.w3.org/Graphics/SVG/1.1/DTD/svg11.dtd">

<!-- Uploaded to: SVG Repo, www.svgrepo.com, Transformed by: SVG Repo Mixer Tools -->
<svg height="17px" width="17px" version="1.1" id="Layer_1" xmlns="http://www.w3.org/2000/svg" xmlns:xlink="http://www.w3.org/1999/xlink" viewBox="0 0 510 510" xml:space="preserve" fill="#000000">

<g id="SVGRepo_bgCarrier" stroke-width="0"/>

<g id="SVGRepo_tracerCarrier" stroke-linecap="round" stroke-linejoin="round"/>

<g id="SVGRepo_iconCarrier"> <path style="fill:#FFA000;" d="M505.984,164.646v-23.693c0-25.299-18.874-44.575-44.173-44.575h-188.74l0,0l0,0l0,0l0,0 c-0.402,0-0.402,0-0.803,0c-0.402,0-0.803-0.402-0.803-0.803l-43.37-43.37H56.22c-26.504,0-48.591,19.677-48.591,44.173v68.268 H505.984z"/> <path style="fill:#CCCCCC;" d="M273.071,96.378L273.071,96.378L273.071,96.378z"/> <path style="fill:#FFCA28;" d="M461.811,130.512L56.622,132.52c-25.299,0-52.205,19.677-52.205,44.976 c0,0.402,2.409,2.008,2.409,2.008c-0.402,0.402,0.402,0.402-0.402,0.402l-0.402,0.402L8.431,405.19 c0,25.299,22.89,48.189,48.591,48.189h405.189c24.496,0,44.173-21.685,44.173-48.189V177.496v-14.055 C500.362,144.567,482.693,130.512,461.811,130.512z"/> <path style="fill:#FFA000;" d="M203.598,179.102c-1.205-1.205-2.811-2.409-4.819-2.409H62.244c-2.008,0-4.016,1.205-5.22,2.811 c-0.402,0.803-0.803,2.008-0.803,3.213v24.094c0,3.213,2.811,6.024,6.024,6.024H198.78c3.213,0,6.024-2.811,6.024-6.024v-24.094 C204.803,181.11,204.402,179.905,203.598,179.102z"/> <path d="M461.811,461.811H56.622C27.709,461.811,0,434.504,0,405.591V96.378c0-29.717,29.315-48.189,56.622-48.189h172.677 c1.205,0,2.008,0.402,2.811,1.205l42.968,42.969H461.81c28.913,0,48.189,19.276,48.189,48.591v264.638 C510,432.496,491.528,461.811,461.811,461.811z M56.622,56.22c-23.291,0-48.591,15.26-48.591,40.157V405.59 c0,24.496,24.094,48.189,48.591,48.189h405.189c24.898,0,40.157-24.898,40.157-48.189V140.953c0-24.094-16.063-40.559-40.157-40.559 H273.874c-0.803,0-1.606,0-2.409-0.402s-1.205-0.803-1.606-1.205L227.291,56.22H56.622z"/> <path d="M4.016,184.724c-2.409,0-4.016-1.606-4.016-4.016c0-28.913,23.693-52.205,52.606-52.205h348.968 c2.409,0,4.016,1.606,4.016,4.016s-1.606,4.016-4.016,4.016H52.606c-24.496,0-44.575,19.677-44.575,44.173 C8.031,183.118,6.425,184.724,4.016,184.724z"/> <path d="M505.984,179.102c-2.409,0-4.016-1.606-4.016-4.016c0-24.094-16.063-40.559-40.157-40.559c-2.409,0-4.016-1.606-4.016-4.016 s1.606-4.016,4.016-4.016c28.512,0,48.189,20.079,48.189,48.591C510,177.496,508.394,179.102,505.984,179.102z"/> <path d="M196.772,220.866H60.236c-6.827,0-12.047-5.22-12.047-12.047v-24.094c0-6.827,5.22-12.047,12.047-12.047h136.535 c6.827,0,12.047,5.22,12.047,12.047v24.094C208.819,215.646,203.598,220.866,196.772,220.866z M60.236,180.709 c-2.409,0-4.016,1.606-4.016,4.016v24.094c0,2.409,1.606,4.016,4.016,4.016h136.535c2.409,0,4.016-1.606,4.016-4.016v-24.094 c0-2.409-1.606-4.016-4.016-4.016H60.236z"/> <path d="M208.819,248.976H56.22c-2.409,0-4.016-1.606-4.016-4.016s1.606-4.016,4.016-4.016h152.598c2.409,0,4.016,1.606,4.016,4.016 S211.228,248.976,208.819,248.976z"/> </g>

</svg>